<?xml version="1.0" standalone="no"?><svg xmlns="http://www.w3.org/2000/svg" viewBox="0 0 1440 320"><path fill="#0099ff" fill-opacity="1" d="M0,32L21.8,69.3C43.6,107,87,181,131,202.7C174.5,224,218,192,262,170.7C305.5,149,349,139,393,154.7C436.4,171,480,213,524,213.3C567.3,213,611,171,655,138.7C698.2,107,742,85,785,101.3C829.1,117,873,171,916,160C960,149,1004,75,1047,85.3C1090.9,96,1135,192,1178,240C1221.8,288,1265,288,1309,277.3C1352.7,267,1396,245,1418,234.7L1440,224L1440,320L1418.2,320C1396.4,320,1353,320,1309,320C1265.5,320,1222,320,1178,320C1134.5,320,1091,320,1047,320C1003.6,320,960,320,916,320C872.7,320,829,320,785,320C741.8,320,698,320,655,320C610.9,320,567,320,524,320C480,320,436,320,393,320C349.1,320,305,320,262,320C218.2,320,175,320,131,320C87.3,320,44,320,22,320L0,320Z"></path></svg>