<?xml version="1.0" standalone="no"?><svg xmlns="http://www.w3.org/2000/svg" viewBox="0 0 1440 320"><path fill="#0099ff" fill-opacity="1" d="M0,160L24,144C48,128,96,96,144,101.3C192,107,240,149,288,154.7C336,160,384,128,432,128C480,128,528,160,576,160C624,160,672,128,720,138.7C768,149,816,203,864,186.7C912,171,960,85,1008,96C1056,107,1104,213,1152,234.7C1200,256,1248,192,1296,181.3C1344,171,1392,213,1416,234.7L1440,256L1440,0L1416,0C1392,0,1344,0,1296,0C1248,0,1200,0,1152,0C1104,0,1056,0,1008,0C960,0,912,0,864,0C816,0,768,0,720,0C672,0,624,0,576,0C528,0,480,0,432,0C384,0,336,0,288,0C240,0,192,0,144,0C96,0,48,0,24,0L0,0Z"></path></svg>