<?xml version="1.0" standalone="no"?><svg xmlns="http://www.w3.org/2000/svg" viewBox="0 0 1440 320"><path fill="#3cc4a0" fill-opacity="1" d="M0,64L24,101.3C48,139,96,213,144,250.7C192,288,240,288,288,261.3C336,235,384,181,432,186.7C480,192,528,256,576,272C624,288,672,256,720,256C768,256,816,288,864,288C912,288,960,256,1008,224C1056,192,1104,160,1152,170.7C1200,181,1248,235,1296,250.7C1344,267,1392,245,1416,234.7L1440,224L1440,320L1416,320C1392,320,1344,320,1296,320C1248,320,1200,320,1152,320C1104,320,1056,320,1008,320C960,320,912,320,864,320C816,320,768,320,720,320C672,320,624,320,576,320C528,320,480,320,432,320C384,320,336,320,288,320C240,320,192,320,144,320C96,320,48,320,24,320L0,320Z"></path></svg>